#N canvas 2568 594 550 689 10;
#N canvas 2568 940 550 343 hola 0;
#X obj 200 202 print;
#X msg 260 122 mundo;
#X msg 200 122 hola;
#X floatatom 350 122 5 0 0 0 - - -, f 5;
#X obj 350 202 print;
#X obj 52 204 print;
#X msg 112 124 mundo;
#X msg 52 124 hola;
#X msg 72 54 bang;
#X obj 200 52 bng 15 250 50 0 empty empty empty 17 7 0 10 #fcfcfc #000000
#000000;
#X text 100 22 Hola mundo!;
#X connect 1 0 0 0;
#X connect 2 0 0 0;
#X connect 3 0 4 0;
#X connect 6 0 5 0;
#X connect 7 0 5 0;
#X connect 8 0 7 0;
#X connect 8 0 6 0;
#X connect 9 0 2 0;
#X connect 9 0 1 0;
#X restore 50 30 pd hola mundo;
#N canvas 2568 940 550 343 tipos 0;
#X msg 50 30 3.14;
#X obj 50 60 print;
#X msg 150 30 hola mundo;
#X obj 150 60 print;
#X msg 50 100 list 1 2 3 4;
#X obj 50 140 print;
#X obj 296 82 <;
#X msg 280 30 2;
#X msg 340 30 3;
#X obj 290 127 print;
#X text 370 80 booleanos son 0 o 1;
#X connect 0 0 1 0;
#X connect 2 0 3 0;
#X connect 4 0 5 0;
#X connect 6 0 9 0;
#X connect 7 0 6 0;
#X connect 8 0 6 1;
#X restore 50 60 pd tipos de datos;
#N canvas 2568 940 550 343 operaciones 0;
#X msg 180 70 2;
#X msg 260 70 3;
#X obj 220 120 +;
#X obj 220 170 print;
#X obj 220 20 bng 15 250 50 0 empty empty empty 17 7 0 10 #fcfcfc #000000
#000000;
#X msg 360 80 2;
#X msg 430 80 3;
#X obj 384 129 +;
#X obj 372 167 print;
#X obj 360 40 trigger bang bang;
#X obj 360 10 bng 15 250 50 0 empty empty empty 17 7 0 10 #fcfcfc #000000
#000000;
#X msg 540 90 2;
#X msg 610 90 3;
#X obj 564 139 +;
#X obj 552 177 print;
#X obj 540 20 bng 15 250 50 0 empty empty empty 17 7 0 10 #fcfcfc #000000
#000000;
#X obj 540 50 t b b;
#X msg 440 380 2;
#X msg 510 380 3;
#X obj 452 467 print;
#X obj 440 310 bng 15 250 50 0 empty empty empty 17 7 0 10 #fcfcfc
#000000 #000000;
#X obj 440 340 t b b;
#X obj 464 429 >;
#X msg 32 72 2;
#X msg 112 72 3;
#X obj 72 122 +;
#X obj 72 172 print;
#X text 30 200 Modelo ejecución: Por oferta \, pero solo en el primer
puerto, f 21;
#X text 190 200 Los puertos de entrada se activan en el orden que fueron
creadas las conexiones, f 19;
#X text 360 200 trigger emite de derecha a izquierda, f 14;
#X connect 0 0 2 0;
#X connect 1 0 2 1;
#X connect 2 0 3 0;
#X connect 4 0 0 0;
#X connect 4 0 1 0;
#X connect 5 0 7 0;
#X connect 6 0 7 1;
#X connect 7 0 8 0;
#X connect 9 0 5 0;
#X connect 9 1 6 0;
#X connect 10 0 9 0;
#X connect 11 0 13 0;
#X connect 12 0 13 1;
#X connect 13 0 14 0;
#X connect 15 0 16 0;
#X connect 16 0 11 0;
#X connect 16 1 12 0;
#X connect 17 0 22 0;
#X connect 18 0 22 1;
#X connect 20 0 21 0;
#X connect 21 0 17 0;
#X connect 21 1 18 0;
#X connect 22 0 19 0;
#X connect 23 0 25 0;
#X connect 24 0 25 1;
#X connect 25 0 26 0;
#X restore 50 100 pd operaciones;
#N canvas 2568 940 550 343 variables 0;
#X obj 200 140 float;
#X obj 150 100 bng 15 250 50 0 empty empty empty 17 7 0 10 #fcfcfc
#000000 #000000;
#X obj 310 180 print;
#X obj 222 343 float;
#X obj 172 303 bng 15 250 50 0 empty empty empty 17 7 0 10 #fcfcfc
#000000 #000000;
#X msg 240 291 5;
#X obj 342 343 + 1;
#X obj 212 383 print;
#X text 92 293 pulso para ejecutar incremento, f 16;
#X text 272 243 Mensaje para inicializar la variable, f 15;
#X msg 340 70 1;
#X obj 320 140 +;
#X obj 251 531 float;
#X obj 201 491 bng 15 250 50 0 empty empty empty 17 7 0 10 #fcfcfc
#000000 #000000;
#X msg 269 479 5;
#X obj 371 531 + 1;
#X obj 241 571 print;
#X text 420 310 Genera loop infinito;
#X connect 0 0 11 0;
#X connect 1 0 0 0;
#X connect 3 0 7 0;
#X connect 3 0 6 0;
#X connect 4 0 3 0;
#X connect 5 0 3 0;
#X connect 6 0 3 0;
#X connect 10 0 11 1;
#X connect 11 0 2 0;
#X connect 12 0 16 0;
#X connect 12 0 15 0;
#X connect 13 0 12 0;
#X connect 14 0 12 0;
#X connect 15 0 12 1;
#X restore 50 140 pd variables;
#N canvas 2568 1056 550 227 condicionales 0;
#X obj 90 90 spigot;
#X msg 90 30 100;
#X obj 90 130 print;
#X msg 140 30 1;
#X msg 175 66 0;
#X text 240 40 Parecido a Switch;
#X connect 0 0 2 0;
#X connect 1 0 0 0;
#X connect 3 0 0 1;
#X connect 4 0 0 1;
#X restore 42 176 pd condicionales;
#N canvas 2568 940 550 318 metrónomo 1;
#X obj 300 150 metro 1000;
#X obj 270 80 bng 15 250 50 0 empty empty empty 17 7 0 10 #fcfcfc #000000
#000000;
#X obj 300 220 bng 15 250 50 0 empty empty empty 17 7 0 10 #fcfcfc
#000000 #000000;
#X msg 369 95 500;
#X msg 421 114 1000;
#X msg 314 81 stop;
#X obj 540 170 metro;
#X msg 587 129 500;
#X obj 509 109 bng 15 250 50 0 empty empty empty 17 7 0 10 #fcfcfc
#000000 #000000;
#X obj 539 229 bng 15 250 50 0 empty empty empty 17 7 0 10 #fcfcfc
#000000 #000000;
#X msg 550 77 stop;
#X obj 80 170 metro 1000;
#X obj 72 82 bng 15 250 50 0 empty empty empty 17 7 0 10 #fcfcfc #000000
#000000;
#X obj 82 232 bng 15 250 50 0 empty empty empty 17 7 0 10 #fcfcfc #000000
#000000;
#X connect 0 0 2 0;
#X connect 1 0 0 0;
#X connect 3 0 0 1;
#X connect 4 0 0 1;
#X connect 5 0 0 0;
#X connect 6 0 9 0;
#X connect 7 0 6 1;
#X connect 8 0 6 0;
#X connect 10 0 6 0;
#X connect 11 0 13 0;
#X connect 12 0 11 0;
#X restore 54 210 pd metrónomo;
#N canvas 2434 719 684 323 hacer 0;
#X obj 165 424 bng 15 250 50 0 empty empty empty 17 7 0 10 #fcfcfc
#000000 #000000;
#X obj 185 254 bng 15 250 50 0 empty empty empty 17 7 0 10 #fcfcfc
#000000 #000000;
#X obj 226 415 float;
#X msg 295 344 1;
#X obj 325 414 + 1;
#X obj 275 474 print;
#X obj 195 484 >= 10;
#X obj 45 354 spigot;
#X msg 45 284 stop;
#X obj 165 354 metro 500;
#X msg 235 334 500;
#X obj 170 280 t b b;
#X obj 462 418 float;
#X obj 530 420 + 1;
#X obj 460 460 print;
#X obj 460 380 until;
#X msg 460 330 10;
#X obj 495 264 bng 15 250 50 0 empty empty empty 17 7 0 10 #fcfcfc
#000000 #000000;
#X obj 480 290 t b b;
#X msg 560 350 1;
#X obj 80 30 bng 15 250 50 0 empty empty empty 17 7 0 10 #fcfcfc #000000
#000000;
#X obj 80 100 float;
#X msg 130 50 1;
#X obj 180 100 + 1;
#X obj 80 170 print;
#X obj 310 30 bng 15 250 50 0 empty empty empty 17 7 0 10 #fcfcfc #000000
#000000;
#X obj 310 100 float;
#X msg 360 50 1;
#X obj 410 100 + 1;
#X obj 370 150 print;
#X obj 287 174 >= 10;
#X obj 287 199 print;
#X connect 1 0 11 0;
#X connect 2 0 4 0;
#X connect 2 0 5 0;
#X connect 2 0 6 0;
#X connect 3 0 2 1;
#X connect 4 0 2 1;
#X connect 6 0 7 1;
#X connect 7 0 9 0;
#X connect 8 0 7 0;
#X connect 9 0 2 0;
#X connect 9 0 8 0;
#X connect 9 0 0 0;
#X connect 10 0 9 1;
#X connect 11 0 9 0;
#X connect 11 1 3 0;
#X connect 12 0 13 0;
#X connect 12 0 14 0;
#X connect 13 0 12 1;
#X connect 15 0 12 0;
#X connect 16 0 15 0;
#X connect 17 0 18 0;
#X connect 18 0 16 0;
#X connect 18 1 19 0;
#X connect 19 0 12 1;
#X connect 20 0 21 0;
#X connect 21 0 23 0;
#X connect 21 0 24 0;
#X connect 22 0 21 1;
#X connect 23 0 21 1;
#X connect 25 0 26 0;
#X connect 26 0 28 0;
#X connect 26 0 29 0;
#X connect 26 0 30 0;
#X connect 27 0 26 1;
#X connect 28 0 26 1;
#X connect 30 0 31 0;
#X restore 294 99 pd hacer que bang parpadee 10 veces;
#N canvas 2434 879 684 348 listas 0;
#X obj 30 170 list append;
#X obj 34 236 print;
#X msg 160 90 list 6 7 8;
#X msg 20 90 list 1 2 3 4 5;
#X obj 163 224 list length;
#X obj 156 259 print;
#X obj 80 50 t b b;
#X obj 90 10 bng 15 250 50 0 empty empty empty 17 7 0 10 #fcfcfc #000000
#000000;
#X msg 277 35 list 1 2 3 4 5;
#X obj 260 100 unpack float float float float float;
#X obj 260 196 pack f f f f f;
#X obj 265 250 print;
#X connect 0 0 1 0;
#X connect 0 0 4 0;
#X connect 2 0 0 1;
#X connect 3 0 0 0;
#X connect 4 0 5 0;
#X connect 6 0 3 0;
#X connect 6 1 2 0;
#X connect 7 0 6 0;
#X connect 8 0 9 0;
#X connect 9 0 10 0;
#X connect 9 1 10 1;
#X connect 9 2 10 2;
#X connect 9 3 10 3;
#X connect 9 4 10 4;
#X connect 10 0 11 0;
#X restore 277 136 pd listas;
#N canvas 2434 879 684 323 iteracion 0;
#X msg 137 70 a;
#X msg 220 70 b;
#X msg 290 70 c;
#X msg 360 70 d;
#X obj 180 200 zl iter;
#X msg 277 148 1;
#X msg 320 170 2;
#X msg 360 190 3;
#X obj 171 263 print;
#X msg 28 39 1 2 3 4 5;
#X msg 589 91 a;
#X msg 672 91 b;
#X msg 742 91 c;
#X msg 812 91 d;
#X msg 729 169 1;
#X msg 772 191 2;
#X msg 812 211 3;
#X obj 623 284 print;
#X msg 480 60 1 2 3 4 5;
#X obj 630 220 zl group;
#X text 520 220 zl group deja pendientes los últimos elementos, f
14;
#X connect 0 0 4 0;
#X connect 1 0 4 0;
#X connect 2 0 4 0;
#X connect 3 0 4 0;
#X connect 4 0 8 0;
#X connect 5 0 4 1;
#X connect 6 0 4 1;
#X connect 7 0 4 1;
#X connect 9 0 4 0;
#X connect 10 0 19 0;
#X connect 11 0 19 0;
#X connect 12 0 19 0;
#X connect 13 0 19 0;
#X connect 14 0 19 1;
#X connect 15 0 19 1;
#X connect 16 0 19 1;
#X connect 18 0 19 0;
#X connect 19 0 17 0;
#X restore 270 177 pd iteracion listas;
