#N canvas -7 0 1030 671 10;
#X msg 62 -128 0;
#X obj 94 -336 inlet;
#X obj 62 -48 outlet;
#X obj 134 -166 text define \$0-datos;
#X obj 142 -128 text get \$0-datos;
#X msg 172 -238 read datos.txt;
#X msg 280 -240 clear;
#X obj 170 -80 zl group;
#X obj 260 -90 bang;
#X obj 240 -60 4;
#X obj 220 -10 *;
#X obj 150 -50 unpack s f f;
#X obj 170 80 print;
#X obj 100 30 f;
#X obj 30 30 +;
#X obj 94 -276 t b b b b;
#X connect 0 0 4 0;
#X connect 0 0 14 1;
#X connect 1 0 15 0;
#X connect 3 0 0 0;
#X connect 4 0 2 0;
#X connect 4 0 7 0;
#X connect 4 0 8 0;
#X connect 5 0 3 0;
#X connect 6 0 3 0;
#X connect 7 0 11 0;
#X connect 8 0 9 0;
#X connect 9 0 7 1;
#X connect 10 0 14 0;
#X connect 11 1 10 0;
#X connect 11 2 10 1;
#X connect 13 0 14 1;
#X connect 13 0 12 0;
#X connect 14 0 13 0;
#X connect 15 0 3 0;
#X connect 15 1 5 0;
#X connect 15 2 6 0;
