#N canvas 450 182 450 300 10;
#X msg 62 -128 0;
#X obj 94 -336 inlet;
#X obj 62 -48 outlet;
#X obj 134 -166 text define \$0-datos;
#X obj 142 -128 text get \$0-datos;
#X msg 172 -238 read datos.txt;
#X msg 342 -248 clear;
#X obj 94 -276 t b b b;
#X obj 170 -68 zl group;
#X obj 312 -84 bang;
#X obj 312 -55 4;
#X obj 160 52 pack s f;
#X obj 240 12 *;
#X obj 160 -28 unpack s f f;
#X obj 160 92 print;
#X connect 0 0 4 0;
#X connect 1 0 7 0;
#X connect 3 0 0 0;
#X connect 4 0 2 0;
#X connect 4 0 8 0;
#X connect 4 0 9 0;
#X connect 5 0 3 0;
#X connect 6 0 3 0;
#X connect 7 0 3 0;
#X connect 7 1 5 0;
#X connect 7 2 6 0;
#X connect 8 0 13 0;
#X connect 9 0 10 0;
#X connect 10 0 8 1;
#X connect 11 0 14 0;
#X connect 12 0 11 1;
#X connect 13 0 11 0;
#X connect 13 1 12 0;
#X connect 13 2 12 1;
